# xmcd
#
# Track frame offsets:
#	150
#	19161
#	34720
#	52054
#	68215
#	85226
#	99653
#	123282
#	139455
#	158786
#	176459
#	194583
#	215475
#	234516
#	256063
#
# Disc length: 3609 seconds
#
# Revision: 1
# Processed by: cddbd v1.5.2PL0 Copyright (c) Steve Scherf et al.
# Submitted via: audiograbber 1.83.01
#
DISCID=d40e170f
DTITLE=Brantley Gilbert - Halfway to Heaven [Deluxe Edition]
DYEAR=2011
DGENRE=
TTITLE0=Hell on Wheels
TTITLE1=Bendin' the Rules and Breakin' the Law
TTITLE2=Back in the Day
TTITLE3=My Kinda Crazy
TTITLE4=Kick It in the Sticks
TTITLE5=Halfway to Heaven
TTITLE6=Savin' Amy
TTITLE7=Country Must Be Country Wide
TTITLE8=Take It Outside
TTITLE9=Them Boys
TTITLE10=Fall Into Me
TTITLE11=Dirt Road Anthem
TTITLE12=More Than Miles
TTITLE13=You Don't Know Her Like I Do
TTITLE14=Hell on an Angel
EXTD=
EXTT0=
EXTT1=
EXTT2=
EXTT3=
EXTT4=
EXTT5=
EXTT6=
EXTT7=
EXTT8=
EXTT9=
EXTT10=
EXTT11=
EXTT12=
EXTT13=
EXTT14=
PLAYORDER=
